<svg version="1.2" fill="currentColor" stroke="currentColor" xmlns="http://www.w3.org/2000/svg" viewBox="0 0 247 25">
	<title>New Project</title>
	<path class="s0" d="m6.7 17.6q1.5 0 2.3-0.5 0.8-0.6 0.8-1.5 0-0.6-0.2-1-0.2-0.4-0.8-0.7-0.7-0.4-2-0.7-1.3-0.3-2.3-0.8-1-0.4-1.5-1.1-0.5-0.7-0.5-1.8 0-1 0.6-1.8 0.6-0.8 1.7-1.2 1.1-0.4 2.5-0.4 1.5 0 2.6 0.4 1.2 0.4 2 1l-0.9 1.4q-0.7-0.5-1.6-0.8-0.9-0.4-2.1-0.4-1.5 0-2.1 0.5-0.6 0.5-0.6 1.2 0 0.5 0.3 0.9 0.3 0.4 1 0.7 0.8 0.3 2 0.6 1.3 0.3 2.2 0.8 0.9 0.4 1.4 1.2 0.5 0.7 0.5 1.9 0 1.4-0.7 2.2-0.8 0.8-2 1.2-1.2 0.4-2.6 0.4-1.7 0-2.9-0.5-1.2-0.5-2-1.2l1.1-1.4q0.8 0.7 1.7 1 1 0.4 2.1 0.4zm10.7-11.2h7.3v10.6q0 2.1-1 3.5-0.9 1.4-2.7 2.3-1.8 0.9-4.4 1.3l-0.3-1.6q1.9-0.3 3.3-0.9 1.4-0.6 2.2-1.7 0.9-1.1 0.9-2.8v-9.1h-5.3zm5.4-6q0.7 0 1.1 0.4 0.4 0.5 0.4 1 0 0.7-0.4 1.1-0.4 0.4-1.1 0.4-0.6 0-1-0.4-0.4-0.4-0.4-1.1 0-0.5 0.4-1 0.4-0.4 1-0.4zm8.6 0.9l2-0.2v7q0.8-1 1.9-1.5 1-0.5 2.2-0.5 1.8 0 2.7 1 0.8 1 0.8 2.7v9.2h-2v-9.1q0-1.2-0.5-1.7-0.6-0.5-1.7-0.5-0.7 0-1.4 0.3-0.6 0.3-1.1 0.8-0.5 0.5-0.9 1v9.2h-2zm24.1 12.1h-8.5q0.1 1.4 0.6 2.4 0.5 0.9 1.3 1.4 0.8 0.4 1.8 0.4 1 0 1.7-0.3 0.8-0.3 1.7-0.9l0.9 1.4q-0.9 0.7-2 1.1-1.1 0.4-2.3 0.4-1.9 0-3.2-0.8-1.3-0.9-1.9-2.4-0.7-1.5-0.7-3.4 0-1.9 0.7-3.4 0.6-1.5 1.9-2.4 1.2-0.8 2.9-0.8 1.6 0 2.8 0.7 1.1 0.8 1.7 2.2 0.6 1.4 0.6 3.3 0 0.3 0 0.6 0 0.3 0 0.5zm-5.1-5.7q-1.4 0-2.3 1-1 1-1.1 3.1h6.6q0-2-0.9-3-0.8-1.1-2.3-1.1zm14.3 9.9q1.5 0 2.3-0.5 0.8-0.6 0.8-1.5 0-0.6-0.2-1-0.2-0.4-0.8-0.7-0.7-0.4-2-0.7-1.3-0.4-2.3-0.8-1-0.4-1.5-1.1-0.5-0.7-0.5-1.8 0-1 0.6-1.8 0.6-0.8 1.7-1.2 1.1-0.4 2.5-0.4 1.5 0 2.6 0.4 1.2 0.4 2 1l-0.9 1.3q-0.7-0.4-1.6-0.8-0.9-0.3-2.1-0.3-1.5 0-2.1 0.5-0.6 0.4-0.6 1.2 0 0.5 0.3 0.9 0.3 0.4 1 0.7 0.8 0.2 2 0.6 1.3 0.3 2.2 0.8 0.9 0.4 1.4 1.2 0.5 0.7 0.5 1.9 0 1.3-0.7 2.2-0.8 0.8-2 1.2-1.2 0.4-2.6 0.4-1.7 0-2.9-0.5-1.2-0.5-2-1.2l1.1-1.4q0.8 0.6 1.7 1 1 0.4 2.1 0.4zm9.7-11.2h2v8.9q0 1.3 0.5 1.8 0.6 0.6 1.7 0.6 1 0 1.9-0.6 1-0.6 1.5-1.4v-9.3h2v12.6h-1.7l-0.2-1.7q-0.7 0.9-1.8 1.5-1.1 0.5-2.2 0.5-1.9 0-2.8-1-0.9-1-0.9-2.8zm23.1 3.9v6q0 0.8 0.2 1.1 0.3 0.4 0.8 0.5l-0.5 1.5q-0.8-0.1-1.4-0.6-0.6-0.4-0.9-1.2-0.7 0.9-1.7 1.3-1 0.5-2.3 0.5-1.9 0-3-1.1-1.1-1.1-1.1-2.8 0-2 1.6-3 1.5-1.1 4.4-1.1h1.8v-1q0-1.4-0.8-2-0.8-0.5-2.2-0.5-0.6 0-1.5 0.1-0.8 0.2-1.8 0.5l-0.5-1.5q1.2-0.5 2.2-0.6 1-0.2 1.9-0.2 2.4 0 3.6 1.1 1.2 1.1 1.2 3zm-5.3 7.5q1 0 1.8-0.4 0.9-0.5 1.4-1.4v-3.2h-1.8q-2.1 0-2.9 0.7-0.9 0.7-0.9 1.9 0 1.2 0.6 1.8 0.6 0.6 1.8 0.6zm15.6-15.5q1.9 0 3.1 0.6 1.3 0.5 2.1 1.5 0.8 1 1.3 2.2 0.4 1.3 0.6 2.8 0.1 1.4 0.1 2.8 0 3.1-0.2 5.1-0.3 2-1.1 3-0.7 1-2.2 1-0.7 0-1.3-0.4-0.5-0.4-0.9-0.9-0.3-0.6-0.5-1.1-0.1-0.6-0.1-1.1h-0.1q-0.2 0.6-0.6 1.1-0.4 0.6-1.1 0.9-0.6 0.4-1.6 0.4-1.3 0-2.1-0.7-0.8-0.7-1.1-2-0.4-1.2-0.4-2.8 0-3.2 1.2-4.7 1.3-1.5 3.5-1.5 0.9 0 1.6 0.2 0.8 0.1 1.8 0.7v7.1q0 1.3 0.2 2 0.3 0.6 0.6 0.9 0.4 0.2 0.9 0.2 0.6 0 0.9-0.5 0.3-0.6 0.4-1.6 0.1-1 0.2-2.3 0-1.4 0-2.9 0-1.7-0.2-3.2-0.2-1.5-0.7-2.7-0.6-1.1-1.6-1.7-1-0.7-2.7-0.7-1.1 0-2.5 0.5-1.4 0.4-2.9 1.8l-1.2-1.4q1.6-1.4 3.3-2 1.7-0.6 3.3-0.6zm-1.3 7.7q-1.6 0-2.2 1.2-0.6 1.2-0.6 3.5 0 1.2 0.1 2.1 0.2 0.8 0.6 1.4 0.4 0.5 1.2 0.5 0.8 0 1.3-0.4 0.5-0.4 0.7-0.9 0.3-0.5 0.4-0.8v-6.3q-0.3-0.2-0.7-0.2-0.4-0.1-0.8-0.1zm21.2-4.9l0.6 1.9q-0.8 0.2-1.7 0.3-0.9 0.1-2 0.1 1.1 0.5 1.7 1.3 0.5 0.8 0.5 1.8 0 1.3-0.6 2.3-0.5 0.9-1.6 1.5-1 0.5-2.5 0.5-0.7 0-1.1 0-0.4-0.1-0.8-0.2-0.3 0.2-0.5 0.5-0.2 0.4-0.2 0.7 0 0.5 0.4 0.8 0.3 0.3 1.3 0.3h2.3q1.3 0 2.3 0.5 1 0.4 1.6 1.2 0.6 0.7 0.6 1.7 0 1.9-1.6 2.9-1.6 1-4.5 1-2 0-3.2-0.4-1.1-0.5-1.6-1.3-0.5-0.9-0.5-2.1h1.8q0 0.7 0.3 1.2 0.3 0.5 1 0.7 0.8 0.2 2.2 0.2 1.4 0 2.3-0.2 0.9-0.2 1.3-0.7 0.4-0.5 0.4-1.1 0-0.9-0.8-1.4-0.8-0.5-2-0.5h-2.3q-1.6 0-2.4-0.7-0.8-0.7-0.8-1.6 0-0.6 0.4-1.2 0.3-0.6 1-1.1-1.1-0.5-1.6-1.4-0.5-0.8-0.5-2 0-1.3 0.6-2.3 0.7-1 1.8-1.6 1.1-0.5 2.6-0.5 1.6 0 2.6-0.2 1-0.1 1.7-0.3 0.7-0.3 1.5-0.6zm-5.8 2.5q-1.5 0-2.2 0.9-0.8 0.8-0.8 2.1 0 1.2 0.8 2.1 0.7 0.8 2.3 0.8 1.3 0 2-0.8 0.7-0.8 0.7-2.2 0-1.4-0.7-2.1-0.7-0.8-2.1-0.8zm18.8-1.4q0.6 0 1.2 0.2 0.6 0.3 0.9 1.1 0.4 0.7 0.4 2.2v9.4h-1.9v-9.1q0-1.2-0.1-1.7-0.2-0.5-0.9-0.5-0.5 0-1.1 0.3-0.5 0.4-1.1 1.2v9.8h-1.8v-9.1q0-1.2-0.2-1.7-0.1-0.5-0.8-0.5-0.6 0-1.2 0.3-0.5 0.4-1 1.2v9.8h-1.9v-12.7h1.6l0.1 1.5q0.5-0.7 1.2-1.2 0.6-0.5 1.6-0.5 0.7 0 1.3 0.3 0.7 0.4 1 1.3 0.5-0.7 1.1-1.1 0.7-0.5 1.6-0.5zm14.8 4.1v6q0 0.8 0.2 1.1 0.3 0.4 0.8 0.5l-0.5 1.5q-0.8-0.1-1.4-0.6-0.6-0.4-0.9-1.2-0.7 0.9-1.7 1.3-1 0.5-2.3 0.5-1.9 0-3-1.1-1.1-1.1-1.1-2.8 0-2 1.6-3 1.5-1.1 4.4-1.1h1.8v-1q0-1.4-0.8-2-0.8-0.5-2.2-0.5-0.6 0-1.5 0.1-0.8 0.2-1.8 0.5l-0.5-1.5q1.2-0.5 2.2-0.6 1-0.2 1.9-0.2 2.4 0 3.6 1.1 1.2 1.1 1.2 3zm-5.3 7.5q1 0 1.8-0.4 0.9-0.5 1.4-1.4v-3.2h-1.8q-2.1 0-2.9 0.7-0.9 0.7-0.9 1.9 0 1.2 0.6 1.8 0.6 0.6 1.8 0.6zm10.8-11.4h5.8v11.1h3.6v1.6h-9.5v-1.6h3.9v-9.5h-3.8zm4.2-5.9q0.7 0 1.1 0.4 0.4 0.4 0.4 1 0 0.6-0.4 1.1-0.4 0.4-1.1 0.4-0.6 0-1.1-0.4-0.3-0.5-0.3-1.1 0-0.6 0.3-1 0.5-0.4 1.1-0.4zm9.2 0.9h5.9v14.6q0 0.9 0.6 1.3 0.6 0.4 1.5 0.4 0.6 0 1.1-0.1 0.5-0.2 1-0.4l0.6 1.5q-0.5 0.3-1.3 0.5-0.8 0.2-1.7 0.2-1.7 0-2.7-1-1.1-0.9-1.1-2.6v-12.9h-3.9zm17.7 15.9q0-0.6 0.3-1 0.2-0.5 0.7-0.8 0.5-0.3 1.1-0.3 0.6 0 1.1 0.3 0.4 0.3 0.7 0.8 0.3 0.4 0.3 1 0 0.6-0.3 1.1-0.3 0.5-0.7 0.8-0.5 0.2-1.1 0.2-0.6 0-1.1-0.2-0.5-0.3-0.7-0.8-0.3-0.5-0.3-1.1zm18 0.4q1 0 1.8-0.3 0.8-0.3 1.5-0.8l1 1.3q-0.8 0.7-2 1.1-1.2 0.4-2.3 0.4-1.9 0-3.2-0.8-1.3-0.8-2-2.2-0.7-1.5-0.7-3.5 0-1.9 0.7-3.4 0.7-1.5 2-2.4 1.4-0.8 3.2-0.8 1.3 0 2.3 0.3 1.1 0.4 2 1.1l-1 1.4q-0.8-0.6-1.6-0.9-0.8-0.3-1.7-0.3-1.6 0-2.7 1.3-1 1.2-1 3.7 0 1.7 0.5 2.8 0.4 1 1.3 1.5 0.8 0.5 1.9 0.5zm13.1-11.4q1.8 0 3 0.8 1.2 0.8 1.8 2.3 0.6 1.4 0.6 3.4 0 2-0.6 3.5-0.6 1.4-1.8 2.3-1.2 0.8-3 0.8-1.8 0-3-0.8-1.2-0.8-1.8-2.3-0.6-1.5-0.6-3.4 0-2 0.6-3.5 0.6-1.5 1.8-2.3 1.3-0.8 3-0.8zm0 1.6q-1.6 0-2.4 1.2-0.9 1.2-0.9 3.8 0 2.5 0.8 3.7 0.9 1.2 2.5 1.2 1.6 0 2.4-1.2 0.9-1.2 0.9-3.8 0-2.5-0.8-3.7-0.9-1.2-2.5-1.2zm17.5-1.6q0.6 0 1.2 0.2 0.6 0.3 0.9 1.1 0.4 0.7 0.4 2.2v9.4h-1.9v-9.1q0-1.2-0.1-1.7-0.2-0.6-0.9-0.6-0.5 0-1.1 0.4-0.5 0.3-1.1 1.2v9.8h-1.8v-9.1q0-1.2-0.2-1.7-0.1-0.6-0.8-0.6-0.6 0-1.2 0.4-0.5 0.3-1 1.2v9.8h-1.9v-12.7h1.6l0.1 1.5q0.5-0.7 1.2-1.2 0.6-0.5 1.6-0.5 0.7 0 1.3 0.3 0.7 0.4 1 1.3 0.5-0.7 1.1-1.2 0.7-0.4 1.6-0.4z"/>
</svg>
